<svg id="visual" viewBox="0 0 900 600" width="900" height="600" xmlns="http://www.w3.org/2000/svg" xmlns:xlink="http://www.w3.org/1999/xlink" version="1.1"><rect x="0" y="0" width="900" height="600" fill="#EFEFEF"></rect><defs><linearGradient id="grad1_0" x1="33.3%" y1="0%" x2="100%" y2="100%"><stop offset="20%" stop-color="#efefef" stop-opacity="1"></stop><stop offset="80%" stop-color="#efefef" stop-opacity="1"></stop></linearGradient></defs><defs><linearGradient id="grad2_0" x1="0%" y1="0%" x2="66.7%" y2="100%"><stop offset="20%" stop-color="#efefef" stop-opacity="1"></stop><stop offset="80%" stop-color="#efefef" stop-opacity="1"></stop></linearGradient></defs><g transform="translate(900, 0)"><path d="M0 324.5C-30.9 311.1 -61.9 297.7 -93.6 288.2C-125.4 278.6 -157.9 273 -187.5 258.1C-217.1 243.1 -243.7 218.9 -262.5 190.7C-281.4 162.6 -292.4 130.4 -301.5 98C-310.5 65.5 -317.5 32.8 -324.5 0L0 0Z" fill="#1a97f3"></path></g><g transform="translate(0, 600)"><path d="M0 -324.5C36.9 -326.2 73.8 -328 100.3 -308.6C126.8 -289.3 143 -248.8 159.9 -220.1C176.8 -191.3 194.5 -174.4 213.6 -155.2C232.7 -136 253.3 -114.6 272 -88.4C290.7 -62.1 307.6 -31.1 324.5 0L0 0Z" fill="#1a97f3"></path></g></svg>