<svg id="visual" viewBox="0 0 900 600" width="900" height="600" xmlns="http://www.w3.org/2000/svg" xmlns:xlink="http://www.w3.org/1999/xlink" version="1.1"><rect x="0" y="0" width="900" height="600" fill="#EFEFEF"></rect><path d="M598 600L614.2 590C630.3 580 662.7 560 694.2 540C725.7 520 756.3 500 766.3 480C776.3 460 765.7 440 758.7 420C751.7 400 748.3 380 726.2 360C704 340 663 320 642.2 300C621.3 280 620.7 260 626.2 240C631.7 220 643.3 200 663.3 180C683.3 160 711.7 140 705.2 120C698.7 100 657.3 80 648 60C638.7 40 661.3 20 672.7 10L684 0L900 0L900 10C900 20 900 40 900 60C900 80 900 100 900 120C900 140 900 160 900 180C900 200 900 220 900 240C900 260 900 280 900 300C900 320 900 340 900 360C900 380 900 400 900 420C900 440 900 460 900 480C900 500 900 520 900 540C900 560 900 580 900 590L900 600Z" fill="#1a97f3" stroke-linecap="round" stroke-linejoin="miter"></path></svg>