<svg id="visual" viewBox="0 0 900 600" width="900" height="600" xmlns="http://www.w3.org/2000/svg" xmlns:xlink="http://www.w3.org/1999/xlink" version="1.1"><rect x="0" y="0" width="900" height="600" fill="#ffffff"></rect><path d="M0 6L8.8 8.5C17.7 11 35.3 16 53 32C70.7 48 88.3 75 106 82C123.7 89 141.3 76 159 61.8C176.7 47.7 194.3 32.3 212 37.7C229.7 43 247.3 69 265 76.5C282.7 84 300.3 73 318 76.7C335.7 80.3 353.3 98.7 371 94.2C388.7 89.7 406.3 62.3 423.8 60.8C441.3 59.3 458.7 83.7 476.2 81.5C493.7 79.3 511.3 50.7 529 36.5C546.7 22.3 564.3 22.7 582 25.2C599.7 27.7 617.3 32.3 635 33.3C652.7 34.3 670.3 31.7 688 29C705.7 26.3 723.3 23.7 741 36.3C758.7 49 776.3 77 794 90.5C811.7 104 829.3 103 847 89.7C864.7 76.3 882.3 50.7 891.2 37.8L900 25L900 0L891.2 0C882.3 0 864.7 0 847 0C829.3 0 811.7 0 794 0C776.3 0 758.7 0 741 0C723.3 0 705.7 0 688 0C670.3 0 652.7 0 635 0C617.3 0 599.7 0 582 0C564.3 0 546.7 0 529 0C511.3 0 493.7 0 476.2 0C458.7 0 441.3 0 423.8 0C406.3 0 388.7 0 371 0C353.3 0 335.7 0 318 0C300.3 0 282.7 0 265 0C247.3 0 229.7 0 212 0C194.3 0 176.7 0 159 0C141.3 0 123.7 0 106 0C88.3 0 70.7 0 53 0C35.3 0 17.7 0 8.8 0L0 0Z" fill="#39aefa" stroke-linecap="round" stroke-linejoin="miter"></path></svg>