<svg id="visual" viewBox="0 0 900 600" width="900" height="600" xmlns="http://www.w3.org/2000/svg" xmlns:xlink="http://www.w3.org/1999/xlink" version="1.1"><rect x="0" y="0" width="900" height="600" fill="#efefef"></rect><defs><linearGradient id="grad1_0" x1="33.3%" y1="0%" x2="100%" y2="100%"><stop offset="20%" stop-color="#3cc0fa" stop-opacity="1"></stop><stop offset="80%" stop-color="#3cc0fa" stop-opacity="1"></stop></linearGradient></defs><defs><linearGradient id="grad1_1" x1="33.3%" y1="0%" x2="100%" y2="100%"><stop offset="20%" stop-color="#3cc0fa" stop-opacity="1"></stop><stop offset="80%" stop-color="#efefef" stop-opacity="1"></stop></linearGradient></defs><defs><linearGradient id="grad2_0" x1="0%" y1="0%" x2="66.7%" y2="100%"><stop offset="20%" stop-color="#3cc0fa" stop-opacity="1"></stop><stop offset="80%" stop-color="#3cc0fa" stop-opacity="1"></stop></linearGradient></defs><defs><linearGradient id="grad2_1" x1="0%" y1="0%" x2="66.7%" y2="100%"><stop offset="20%" stop-color="#efefef" stop-opacity="1"></stop><stop offset="80%" stop-color="#3cc0fa" stop-opacity="1"></stop></linearGradient></defs><g transform="translate(900, 0)"><path d="M0 216.3C-20.5 196.9 -41 177.4 -51.6 158.8C-62.3 140.3 -63.1 122.6 -88.8 122.2C-114.4 121.7 -164.9 138.5 -175 127.2C-185.1 115.8 -154.9 76.3 -155 50.4C-155.2 24.5 -185.8 12.2 -216.3 0L0 0Z" fill="#a9d7f5"></path><path d="M0 108.2C-10.2 98.4 -20.5 88.7 -25.8 79.4C-31.1 70.1 -31.5 61.3 -44.4 61.1C-57.2 60.9 -82.5 69.3 -87.5 63.6C-92.6 57.9 -77.4 38.1 -77.5 25.2C-77.6 12.2 -92.9 6.1 -108.2 0L0 0Z" fill="#3cc0fa"></path></g><g transform="translate(0, 600)"><path d="M0 -216.3C20.6 -210.2 41.2 -204 64.6 -198.8C87.9 -193.5 114.1 -189.3 124.6 -171.5C135.2 -153.8 130.2 -122.5 144 -104.6C157.9 -86.7 190.5 -82.1 205.7 -66.9C220.9 -51.6 218.6 -25.8 216.3 0L0 0Z" fill="#a9d7f5"></path><path d="M0 -108.2C10.3 -105.1 20.6 -102 32.3 -99.4C44 -96.8 57 -94.6 62.3 -85.8C67.6 -76.9 65.1 -61.3 72 -52.3C78.9 -43.4 95.3 -41 102.9 -33.4C110.5 -25.8 109.3 -12.9 108.2 0L0 0Z" fill="#3cc0fa"></path></g></svg>