<svg xmlns="http://www.w3.org/2000/svg" version="1.1" xmlns:xlink="http://www.w3.org/1999/xlink" xmlns:svgjs="http://svgjs.com/svgjs" width="1440" height="560" preserveAspectRatio="none" viewBox="0 0 1440 560"><g mask="url(&quot;#SvgjsMask1421&quot;)" fill="none"><rect width="1440" height="560" x="0" y="0" fill="rgba(255, 255, 255, 1)"></rect><path d="M1512 560L0 560 L0 312.12Q44.47 284.59, 72 329.05Q148.11 285.16, 192 361.28Q218.65 315.93, 264 342.59Q310.44 269.02, 384 315.46Q425.43 284.89, 456 326.32Q530.63 280.94, 576 355.57Q615.8 275.37, 696 315.17Q740.94 288.12, 768 333.06Q833.07 278.13, 888 343.2Q913.62 296.81, 960 322.43Q1013.21 303.63, 1032 356.84Q1056.7 309.54, 1104 334.24Q1133.63 291.87, 1176 321.49Q1204.91 278.4, 1248 307.31Q1346.3 285.61, 1368 383.91Q1391.64 335.55, 1440 359.19Q1460.77 307.96, 1512 328.73z" fill="rgba(241, 241, 241, 1)"></path><path d="M1464 560L0 560 L0 427.9Q41.81 349.71, 120 391.53Q165.68 365.21, 192 410.89Q233.46 332.35, 312 373.81Q359.64 349.45, 384 397.09Q433.55 374.63, 456 424.18Q463.49 359.67, 528 367.16Q570.64 337.8, 600 380.44Q677.27 337.71, 720 414.97Q796.7 371.67, 840 448.37Q874.76 363.13, 960 397.9Q1007.76 325.66, 1080 373.43Q1139.76 361.19, 1152 420.96Q1196.54 345.5, 1272 390.04Q1355.08 353.12, 1392 436.2Q1417.57 389.76, 1464 415.33z" fill="rgba(247, 247, 247, 1)"></path><path d="M1536 560L0 560 L0 520.61Q31.45 480.06, 72 511.51Q102.58 470.09, 144 500.67Q152.34 437.01, 216 445.35Q283.75 393.11, 336 460.86Q405.4 410.26, 456 479.67Q498.32 449.99, 528 492.31Q576.51 420.82, 648 469.34Q707.34 456.68, 720 516.02Q746.96 422.98, 840 449.93Q919.22 409.15, 960 488.37Q1014.83 423.2, 1080 478.03Q1103.1 429.13, 1152 452.22Q1195.75 423.98, 1224 467.73Q1274.22 445.96, 1296 496.18Q1364.75 444.93, 1416 513.68Q1454.84 432.52, 1536 471.36z" fill="rgba(229, 229, 229, 1)"></path><path d="M1512 560L0 560 L0 511.67Q47.74 487.41, 72 535.16Q132.93 524.09, 144 585.02Q169.42 490.44, 264 515.86Q329.92 461.78, 384 527.7Q463.42 487.13, 504 566.55Q529.11 519.66, 576 544.77Q615.67 464.44, 696 504.12Q767.46 455.58, 816 527.03Q902.84 493.87, 936 580.71Q937.69 510.4, 1008 512.09Q1035.92 468.01, 1080 495.94Q1165.11 461.05, 1200 546.16Q1222.2 496.36, 1272 518.56Q1320.65 447.21, 1392 495.87Q1474.28 458.15, 1512 540.44z" fill="rgba(255, 255, 255, 1)"></path></g><defs><mask id="SvgjsMask1421"><rect width="1440" height="560" fill="#ffffff"></rect></mask></defs></svg>