<svg id="visual" viewBox="0 0 900 600" width="900" height="600" xmlns="http://www.w3.org/2000/svg" xmlns:xlink="http://www.w3.org/1999/xlink" version="1.1"><rect x="0" y="0" width="900" height="600" fill="#EFEFEF"></rect><defs><linearGradient id="grad1_0" x1="33.3%" y1="100%" x2="100%" y2="0%"><stop offset="20%" stop-color="#efefef" stop-opacity="1"></stop><stop offset="80%" stop-color="#efefef" stop-opacity="1"></stop></linearGradient></defs><defs><linearGradient id="grad2_0" x1="0%" y1="100%" x2="66.7%" y2="0%"><stop offset="20%" stop-color="#efefef" stop-opacity="1"></stop><stop offset="80%" stop-color="#efefef" stop-opacity="1"></stop></linearGradient></defs><g transform="translate(900, 600)"><path d="M-297.5 0C-296.2 -28.1 -294.9 -56.3 -276.3 -74C-257.6 -91.8 -221.5 -99.1 -208.7 -120.5C-195.9 -141.9 -206.3 -177.3 -196.6 -196.6C-186.9 -215.9 -157.2 -219.1 -135 -233.8C-112.8 -248.6 -98.2 -274.8 -77 -287.3C-55.7 -299.8 -27.9 -298.7 0 -297.5L0 0Z" fill="#1a97f3"></path></g><g transform="translate(0, 0)"><path d="M297.5 0C273.1 19.2 248.7 38.4 247.3 66.3C245.9 94.1 267.5 130.5 257.6 148.7C247.8 167 206.5 167.1 183.8 183.8C161.2 200.6 157.3 234 139 240.8C120.7 247.5 87.9 227.8 62.4 232.8C36.8 237.8 18.4 267.6 0 297.5L0 0Z" fill="#1a97f3"></path></g></svg>