<svg id="visual" viewBox="0 0 900 600" width="900" height="600" xmlns="http://www.w3.org/2000/svg" xmlns:xlink="http://www.w3.org/1999/xlink" version="1.1"><rect x="0" y="0" width="900" height="600" fill="#ffffff"></rect><defs><linearGradient id="grad1_0" x1="33.3%" y1="100%" x2="100%" y2="0%"><stop offset="20%" stop-color="#ffffff" stop-opacity="1"></stop><stop offset="80%" stop-color="#ffffff" stop-opacity="1"></stop></linearGradient></defs><defs><linearGradient id="grad2_0" x1="0%" y1="100%" x2="66.7%" y2="0%"><stop offset="20%" stop-color="#ffffff" stop-opacity="1"></stop><stop offset="80%" stop-color="#ffffff" stop-opacity="1"></stop></linearGradient></defs><g transform="translate(900, 600)"><path d="M-297.5 0C-277.4 -30.5 -257.4 -61.1 -247.6 -102.6C-237.8 -144 -238.3 -196.4 -210.3 -210.3C-182.4 -224.3 -125.9 -199.8 -86.1 -207.9C-46.3 -216 -23.2 -256.7 0 -297.5L0 0Z" fill="#39aefa"></path></g><g transform="translate(0, 0)"><path d="M297.5 0C296.5 42.5 295.6 85 274.8 113.8C254 142.7 213.3 158 185.3 185.3C157.2 212.5 141.7 251.8 112.9 272.5C84.1 293.2 42.1 295.4 0 297.5L0 0Z" fill="#39aefa"></path></g></svg>