<svg id="visual" viewBox="0 0 900 600" width="900" height="600" xmlns="http://www.w3.org/2000/svg" xmlns:xlink="http://www.w3.org/1999/xlink" version="1.1"><rect x="0" y="0" width="900" height="600" fill="#ffffff"></rect><defs><linearGradient id="grad1_0" x1="33.3%" y1="0%" x2="100%" y2="100%"><stop offset="20%" stop-color="#ffffff" stop-opacity="1"></stop><stop offset="80%" stop-color="#ffffff" stop-opacity="1"></stop></linearGradient></defs><defs><linearGradient id="grad2_0" x1="0%" y1="0%" x2="66.7%" y2="100%"><stop offset="20%" stop-color="#ffffff" stop-opacity="1"></stop><stop offset="80%" stop-color="#ffffff" stop-opacity="1"></stop></linearGradient></defs><g transform="translate(900, 0)"><path d="M0 351.5C-19.9 328.1 -39.7 304.6 -57.6 289.3C-75.4 274.1 -91.3 267.1 -108.3 261.5C-125.3 255.8 -143.6 251.4 -165 246.9C-186.4 242.5 -211 238 -222.7 222.7C-234.5 207.5 -233.4 181.6 -247.8 165.6C-262.1 149.6 -291.9 143.5 -311.3 129C-330.8 114.4 -339.8 91.5 -344.8 68.6C-349.8 45.7 -350.6 22.8 -351.5 0L0 0Z" fill="#39aefa"></path></g><g transform="translate(0, 600)"><path d="M0 -351.5C21.8 -342.7 43.6 -333.9 65.6 -329.5C87.5 -325.2 109.6 -325.4 132.8 -320.6C156 -315.8 180.2 -306 189.4 -283.5C198.7 -261 193 -225.8 212.8 -212.8C232.7 -199.9 278 -209.4 292.3 -195.3C306.6 -181.3 290 -143.7 283.6 -117.5C277.3 -91.2 281.2 -76.2 294.2 -58.5C307.3 -40.8 329.4 -20.4 351.5 0L0 0Z" fill="#39aefa"></path></g></svg>