<svg id="visual" viewBox="0 0 900 600" width="900" height="600" xmlns="http://www.w3.org/2000/svg" xmlns:xlink="http://www.w3.org/1999/xlink" version="1.1"><rect x="0" y="0" width="900" height="600" fill="#ffffff"></rect><defs><linearGradient id="grad1_0" x1="33.3%" y1="100%" x2="100%" y2="0%"><stop offset="20%" stop-color="#ffffff" stop-opacity="1"></stop><stop offset="80%" stop-color="#ffffff" stop-opacity="1"></stop></linearGradient></defs><defs><linearGradient id="grad2_0" x1="0%" y1="100%" x2="66.7%" y2="0%"><stop offset="20%" stop-color="#ffffff" stop-opacity="1"></stop><stop offset="80%" stop-color="#ffffff" stop-opacity="1"></stop></linearGradient></defs><g transform="translate(900, 600)"><path d="M-351.5 0C-353.6 -24.3 -355.6 -48.7 -344.8 -68.6C-334 -88.5 -310.3 -103.9 -298.4 -123.6C-286.5 -143.3 -286.3 -167.2 -273.6 -182.8C-260.8 -198.4 -235.6 -205.8 -217.8 -217.8C-199.9 -229.8 -189.5 -246.4 -176.7 -264.4C-163.9 -282.4 -148.7 -301.6 -130.1 -314.1C-111.5 -326.6 -89.4 -332.3 -67.1 -337.4C-44.8 -342.5 -22.4 -347 0 -351.5L0 0Z" fill="#39aefa"></path></g><g transform="translate(0, 0)"><path d="M351.5 0C322.7 17.1 293.9 34.3 292.3 58.1C290.7 82 316.3 112.5 306.7 127.1C297.2 141.6 252.5 140.1 242 161.7C231.4 183.3 255 228 248.6 248.6C242.2 269.2 205.7 265.6 180 269.4C154.3 273.2 139.3 284.2 122.1 294.7C104.8 305.2 85.3 315.3 64.6 324.6C43.8 334 21.9 342.8 0 351.5L0 0Z" fill="#39aefa"></path></g></svg>